<?xml version="1.0" standalone="no"?><!DOCTYPE svg PUBLIC "-//W3C//DTD SVG 1.1//EN" "http://www.w3.org/Graphics/SVG/1.1/DTD/svg11.dtd"><svg t="1721695682719" class="icon" viewBox="0 0 1024 1024" version="1.1" xmlns="http://www.w3.org/2000/svg" p-id="5856" xmlns:xlink="http://www.w3.org/1999/xlink" width="200" height="200"><path d="M513.344 557.056c-6.208 0-10.88-1.536-17.088-3.072L74.944 382.976a43.52 43.52 0 0 1-28.032-40.448 43.52 43.52 0 0 1 28.032-40.448l422.848-171.008a39.808 39.808 0 0 1 32.64 0l422.912 169.472a43.52 43.52 0 0 1 27.968 40.448 43.52 43.52 0 0 1-27.968 40.384L530.432 553.984c-6.208 1.536-10.88 3.072-17.088 3.072zM210.176 342.528l303.168 121.28 303.168-122.88-303.168-121.216-303.168 122.816z" fill="#172B4D" p-id="5857"></path><path d="M513.344 746.752c-6.208 0-10.88-1.536-17.088-3.072L74.944 572.672a44.032 44.032 0 0 1-24.896-57.6 43.52 43.52 0 0 1 57.536-24.832l405.76 163.264 405.76-163.2a43.52 43.52 0 0 1 57.6 24.832 43.52 43.52 0 0 1-24.96 57.536L530.56 743.68a55.872 55.872 0 0 1-17.152 3.136z" fill="#172B4D" p-id="5858"></path><path d="M513.344 924.032c-6.208 0-10.88-1.536-17.088-3.136l-421.312-169.472a44.032 44.032 0 0 1-24.896-57.472 43.52 43.52 0 0 1 57.536-24.96l405.76 163.328 405.76-163.264a43.52 43.52 0 0 1 57.6 24.896 43.52 43.52 0 0 1-24.96 57.472L530.56 920.96c-4.672 3.136-10.88 3.136-17.152 3.136z" fill="#172B4D" p-id="5859"></path></svg>