<?xml version="1.0" standalone="no"?><!DOCTYPE svg PUBLIC "-//W3C//DTD SVG 1.1//EN" "http://www.w3.org/Graphics/SVG/1.1/DTD/svg11.dtd"><svg t="1721365203625" class="icon" viewBox="0 0 1024 1024" version="1.1" xmlns="http://www.w3.org/2000/svg" p-id="23308" xmlns:xlink="http://www.w3.org/1999/xlink" width="200" height="200"><path d="M947.403484 889.47719 739.332589 681.406295c23.302729-28.866445 42.130539-60.786435 56.137555-95.327112 18.479887-45.568848 27.849278-93.707219 27.849278-143.078673 0-49.371454-9.369392-97.509824-27.849278-143.077649-19.139919-47.199998-47.244001-89.531106-83.532485-125.81959s-78.619592-64.392566-125.81959-83.532485c-45.567825-18.478863-93.706195-27.848255-143.077649-27.848255s-97.509824 9.369392-143.078673 27.848255c-47.199998 19.139919-89.531106 47.244001-125.81959 83.532485-36.288484 36.288484-64.392566 78.620615-83.532485 125.81959-18.478863 45.568848-27.848255 93.707219-27.848255 143.077649 0 49.371454 9.369392 97.509824 27.848255 143.078673 19.139919 47.198975 47.244001 89.530083 83.532485 125.818567 36.287461 36.288484 78.619592 64.393589 125.81959 83.532485 45.568848 18.479887 93.707219 27.849278 143.078673 27.849278s97.509824-9.369392 143.077649-27.849278c34.541701-14.005992 66.461691-32.833803 95.328136-56.137555l208.070896 208.070896c7.993045 7.993045 18.467607 11.989055 28.943193 11.989055s20.951171-3.996011 28.943193-11.989055C963.388551 931.378509 963.388551 905.462257 947.403484 889.47719zM443.039395 741.415017c-79.709413 0-154.647149-31.04097-211.010855-87.403652-56.362682-56.362682-87.403652-131.301442-87.403652-211.010855 0-79.709413 31.039947-154.647149 87.403652-211.010855 56.363705-56.362682 131.301442-87.403652 211.010855-87.403652 79.709413 0 154.648173 31.039947 211.010855 87.403652 56.362682 56.363705 87.403652 131.301442 87.403652 211.010855 0 79.709413-31.04097 154.648173-87.403652 211.010855S522.748808 741.415017 443.039395 741.415017z" p-id="23309"></path></svg>