<?xml version="1.0" standalone="no"?><!DOCTYPE svg PUBLIC "-//W3C//DTD SVG 1.1//EN" "http://www.w3.org/Graphics/SVG/1.1/DTD/svg11.dtd"><svg t="1721360681775" class="icon" viewBox="0 0 1024 1024" version="1.1" xmlns="http://www.w3.org/2000/svg" p-id="17585" xmlns:xlink="http://www.w3.org/1999/xlink" width="200" height="200"><path d="M512 4.608C231.936 4.608 4.608 231.936 4.608 512s227.328 507.392 507.392 507.392 507.392-227.328 507.392-507.392S792.064 4.608 512 4.608zM234.496 861.184c11.264-84.48 59.904-158.72 133.632-202.752 8.192-5.12 13.824-13.312 14.848-23.04s-2.56-18.944-9.216-25.6c-39.936-37.888-61.44-89.088-61.44-144.896 0-110.592 89.6-200.704 200.192-200.704s200.704 90.112 200.704 200.704c0 55.296-22.016 107.008-61.44 144.896-7.168 6.656-10.24 15.872-9.216 25.6 1.024 9.728 6.656 17.92 14.848 23.04 72.192 43.52 120.832 116.224 133.632 198.656 0 1.024 0.512 2.56 1.024 3.584-76.288 61.44-173.568 97.792-278.528 97.792-106.496 0-202.752-36.352-279.04-97.28z m608.256-49.664c-19.456-73.728-62.976-138.24-124.416-184.832 35.84-45.568 55.296-102.912 55.296-161.28 0-144.384-117.76-262.144-262.144-262.144-144.384 0-261.632 117.76-261.632 262.144 0 58.368 19.968 115.712 55.296 161.28-61.44 46.592-104.96 111.616-124.416 185.344-72.192-79.36-116.224-184.832-116.224-300.032 0-246.272 200.704-446.464 446.464-446.464S957.44 266.24 957.44 512c1.024 115.2-42.496 220.16-114.688 299.52z" fill="#646464" p-id="17586"></path></svg>